<?xml version="1.0" encoding="UTF-8"?>
<!-- Generator: Adobe Illustrator 18.0.0, SVG Export Plug-In . SVG Version: 6.00 Build 0)  -->
<!DOCTYPE svg PUBLIC "-//W3C//DTD SVG 1.1//EN" "http://www.w3.org/Graphics/SVG/1.1/DTD/svg11.dtd">
<svg version="1.1" id="Calque_1" xmlns="http://www.w3.org/2000/svg" xmlns:xlink="http://www.w3.org/1999/xlink" x="0px" y="0px" viewBox="0 0 1057 263" enable-background="new 0 0 1057 263" xml:space="preserve">
<g>
	<g>
		<path fill="#FFDD12" d="M150.1,106c21,62.4,23.5,126.1,23.8,148.4c0-160.7,96.1-194,96.1-194V1.7C215.1,16.5,176.6,59.3,150.1,106    z"/>
		<path fill="#004F9E" d="M135.1,135.2c26.5,57.4,36.8,113.5,38.8,125.2c0-3.1,0-3.6,0-6.1c-0.3-22.4-2.8-86-23.8-148.4    C144.6,115.6,139.6,125.5,135.1,135.2z"/>
	</g>
	<path fill="#FFDD12" d="M173.9,261c-1.1-11.7-12.2-69.5-38.8-127c-8.7-18.8-19.1-37.7-31.6-55.3c-0.2-0.3-0.5-0.7-0.7-1   c-0.7-1-1.4-1.9-2.1-2.9C75.8,40.3,43.2,11.6,0,0v58.7c0,0,19.3,6.7,40.6,28.4c28.6,34.1,52.2,87.6,55.8,172c0,0.7,0,1.4,0.1,2.1   h75.6h1.7C173.8,261.2,173.9,262,173.9,261z"/>
	<g>
		<path fill="#004F9E" d="M323.3,227.6c18.6,0,33.9-7.4,45.7-22.1l24.3,25c-19.3,21.7-42,32.6-68.2,32.6c-26.2,0-47.7-8.3-64.6-24.8    c-16.9-16.5-25.4-37.4-25.4-62.6s8.6-46.2,25.9-63.1c17.3-16.8,38.4-25.3,63.3-25.3c27.9,0,51.2,10.6,70,31.8L370.7,146    c-12-14.9-26.9-22.4-44.7-22.4c-14.3,0-26.4,4.7-36.6,14c-10.1,9.3-15.2,21.9-15.2,37.7s4.8,28.5,14.3,38    C298.1,222.8,309.7,227.6,323.3,227.6z"/>
		<path fill="#004F9E" d="M594.7,261.1l-51.8-131h37.9l32.6,82.4l32.6-82.4h37.9l-51.8,131H594.7z"/>
		<path fill="#004F9E" d="M738.3,261.1h-36.4V130.4h36.4V261.1z"/>
		<path fill="#004F9E" d="M1056.7,261.1h-36.4V80.8h36.4V261.1z"/>
	</g>
	<rect x="701.8" y="80.5" fill="#004F9E" width="37.2" height="35.8"/>
	<g>
		<path fill="#FFDD12" d="M150.1,106c21,62.4,23.5,126.1,23.8,148.4c0-160.7,96.1-194,96.1-194V1.7C215.1,16.5,176.6,59.3,150.1,106    z"/>
		<path fill="#004F9E" d="M135.1,135.2c26.5,57.4,36.8,113.5,38.8,125.2c0-3.1,0-3.6,0-6.1c-0.3-22.4-2.8-86-23.8-148.4    C144.6,115.6,139.6,125.5,135.1,135.2z"/>
	</g>
	<path fill="#FFDD12" d="M173.9,261c-1.1-11.7-12.2-69.5-38.8-127c-8.7-18.8-19.1-37.7-31.6-55.3c-0.2-0.3-0.5-0.7-0.7-1   c-0.7-1-1.4-1.9-2.1-2.9C75.8,40.3,43.2,11.6,0,0v58.7c0,0,19.3,6.7,40.6,28.4c28.6,34.1,52.2,87.6,55.8,172c0,0.7,0,1.4,0.1,2.1   h75.6h1.7C173.8,261.2,173.9,262,173.9,261z"/>
	<g>
		<path fill="#004F9E" d="M323.3,227.6c18.6,0,33.9-7.4,45.7-22.1l24.3,25c-19.3,21.7-42,32.6-68.2,32.6c-26.2,0-47.7-8.3-64.6-24.8    c-16.9-16.5-25.4-37.4-25.4-62.6s8.6-46.2,25.9-63.1c17.3-16.8,38.4-25.3,63.3-25.3c27.9,0,51.2,10.6,70,31.8L370.7,146    c-12-14.9-26.9-22.4-44.7-22.4c-14.3,0-26.4,4.7-36.6,14c-10.1,9.3-15.2,21.9-15.2,37.7s4.8,28.5,14.3,38    C298.1,222.8,309.7,227.6,323.3,227.6z"/>
		<path fill="#004F9E" d="M594.7,261.1l-51.8-131h37.9l32.6,82.4l32.6-82.4h37.9l-51.8,131H594.7z"/>
		<path fill="#004F9E" d="M738.3,261.1h-36.4V130.4h36.4V261.1z"/>
		<path fill="#004F9E" d="M1056.7,261.1h-36.4V80.8h36.4V261.1z"/>
	</g>
	<rect x="701.8" y="80.5" fill="#004F9E" width="37.2" height="35.8"/>
	<g>
		<rect x="779.6" y="156.7" fill="#FFFFFF" width="0.1" height="0"/>
		<path fill="#004F9E" d="M791.5,156.7"/>
		<path fill="#004F9E" d="M791.5,156.7"/>
		<path fill="#004F9E" d="M846.7,222c-4.7,6.2-10.5,9.2-17.3,9.2c-3.6,0-6.6-1.4-9.2-4.3c-2.6-2.8-3.9-6.8-3.9-11.8v-58.6h31.6    v-26.2h-31.6V80.7h-36.7v49.7h-15.3v26.2l27.2,0c-6.6,0.6-11.8,6.2-11.9,13h0v47.3c0,14.3,4.3,25.5,13,33.8    c8.7,8.3,19.3,12.4,31.8,12.4c12.6,0,24.5-5.2,35.8-15.6L846.7,222z"/>
	</g>
	<g>
		<path fill="none" d="M442.6,182.7L442.6,182.7C442.6,182.6,442.6,182.6,442.6,182.7C442.6,182.6,442.6,182.6,442.6,182.7z"/>
		<path fill="#004F9E" d="M442.4,194.9"/>
		<path fill="#FFFFFF" d="M460,208.6C460.1,208.6,460.1,208.7,460,208.6l13.7,0c0,0,0,0,0,0H460z"/>
		<path fill="#FFFFFF" d="M442.6,182.6c0-0.2,0.1-0.3,0.1-0.5C442.7,182.2,442.7,182.4,442.6,182.6z"/>
		<rect x="490.4" y="182.6" fill="#004F9E" width="10.4" height="0"/>
		<path fill="#004F9E" d="M455.4,182.6L455.4,182.6C455.4,182.7,455.4,182.7,455.4,182.6l35,0c0,0,0,0,0,0H455.4z"/>
		<path fill="#FFFFFF" d="M442.4,186.7L442.4,186.7L442.4,186.7L442.4,186.7C442.4,186.7,442.4,186.7,442.4,186.7z"/>
		<path fill="#004F9E" d="M442.4,194.9"/>
		<path fill="#004F9E" d="M455.4,182.7C455.4,182.7,455.4,182.6,455.4,182.7c-0.1,0-0.1,0-0.1,0L455.4,182.7L455.4,182.7z"/>
		<path fill="#004F9E" d="M455.4,182.7L455.4,182.7C455.4,182.7,455.4,182.7,455.4,182.7L455.4,182.7z"/>
		<g>
			<path fill="none" d="M442.6,182.7L442.6,182.7C442.6,182.6,442.6,182.6,442.6,182.7C442.6,182.6,442.6,182.6,442.6,182.7z"/>
			<path fill="#FFFFFF" d="M442.4,186.7l0,8.1c0.1-1.2,0.3-2.3,0.7-3.4"/>
			<path fill="#004F9E" d="M537.7,208.7v-19.4c0-19-6.3-33.9-18.8-44.7c-12.6-10.9-27.8-16.3-45.8-16.3c-18,0-33.6,6.1-46.8,18.2     c-13.2,12.2-19.8,28.5-19.8,49.1c0,20.6,6.5,37,19.4,49.2c13,12.2,29.4,18.3,49.2,18.3c19.8,0,37.1-7,51.9-20.9l-20.4-22.1     c-8.3,8.6-18.8,12.9-31.6,12.9c-7.9,0-15.1-2.3-21.4-6.8c-6.3-4.5-10-10.4-11.2-17.5h17.6c0,0,0,0,0,0h13.7c0,0,0,0,0,0H537.7z      M455.4,182.7L455.4,182.7h-0.2c-3.7,0-7,1.6-9.3,4.1c0,0,0,0,0,0c-1.3,1.3-2.2,3-2.9,4.7c-0.4,1.1-0.6,2.2-0.7,3.4     c0-8.5,0-8.3,0-8.9c0-1.1,0.1-2.2,0.2-3.3h0c0,0,0,0,0-0.1c0-0.2,0.1-0.3,0.1-0.5c1.1-7.2,5.3-12.9,11.2-17.2     c6-4.4,12.6-6.6,19.8-6.6s13.3,2.1,18.3,6.3c5,4.2,7.9,10.2,8.7,18c0,0,0,0,0,0H455.4z"/>
		</g>
	</g>
	<path fill="#004F9E" d="M975.7,140.1c-10-7.9-23-11.9-38.9-11.9c-22,0-41.6,6.2-58.8,18.7l16.3,23.6c4.9-3.7,10.8-6.8,17.9-9.4   c7-2.5,13.7-3.8,20-3.8c14.7,0,22.1,7,22.1,20.9v0.7h-27.2c-16.9,0-30.1,3.3-39.9,10c-9.7,6.6-14.6,16.6-14.6,30   s4.7,24.1,14.1,32.1c9.4,8,21,12,34.9,12c13.8,0,25.5-5.9,34.9-17.7v15.8h34.3v-83.3C990.8,160.6,985.8,148.1,975.7,140.1z    M954.1,211.3c0,6.6-2.5,11.9-7.4,15.9c-4.9,4-10.7,6-17.1,6c-6.5,0-11.5-1.3-14.9-3.8c-3.5-2.5-5.2-6.1-5.2-10.8   c0-9.1,7.3-13.6,21.9-13.6h9.6c0.1,0,0.3,0,0.3,0c0,0,0.1,0,0.1,0c7-0.1,12.7-5.7,12.9-12.7L954.1,211.3z"/>
</g>
</svg>