<svg id="Layer_1" data-name="Layer 1" xmlns="http://www.w3.org/2000/svg" xmlns:xlink="http://www.w3.org/1999/xlink" viewBox="0 0 660 600"><defs><style>.cls-1{fill:none;}.cls-2{fill:#171717;}.cls-3{fill:url(#linear-gradient);}</style><linearGradient id="linear-gradient" x1="386.52" y1="320.84" x2="315" y2="91.74" gradientUnits="userSpaceOnUse"><stop offset="0" stop-color="#ff8500"/><stop offset="1" stop-color="#feb60f"/></linearGradient></defs><title>Artboard 23</title><path class="cls-1" d="M104,0V107.32H0V0Z"/><path class="cls-1" d="M760,0V107.32H656V0Z"/><path class="cls-1" d="M104,670.68V778H0V670.68Z"/><path class="cls-1" d="M760,670.68V778H656V670.68Z"/><g id="YASSIR_Wordmark" data-name="YASSIR Wordmark"><path class="cls-2" d="M155.45,527.05l28.46-44.22h24.33v.92l-42.69,62v44.22h-20.2V545.72l-41.16-62v-.92h24Z"/><path class="cls-2" d="M280.91,569.74h-56l-9.18,20.2H193.86l48-107.1h22l48,107.1h-22Zm-28-64.41L233,550.92h39.78Z"/><path class="cls-2" d="M385.57,508.69c-3.67-6.12-13.77-11.93-25.4-11.93-15,0-22.18,6.27-22.18,14.23,0,9.33,11,11.93,23.87,13.46C384.19,527.2,405,533,405,558.57c0,23.87-21.11,34.12-45,34.12-21.88,0-38.71-6.73-46.66-26.32l16.83-8.72c4.74,11.78,17.14,17,30.14,17,12.7,0,24.63-4.44,24.63-16.07,0-10.1-10.56-14.23-24.79-15.76-21.88-2.6-42.07-8.42-42.07-32.44,0-22,21.73-31.06,41.46-31.21,16.68,0,34,4.74,42.07,21.27Z"/><path class="cls-2" d="M486.7,508.69c-3.67-6.12-13.77-11.93-25.4-11.93-15,0-22.18,6.27-22.18,14.23,0,9.33,11,11.93,23.87,13.46,22.34,2.75,43.14,8.57,43.14,34.12,0,23.87-21.11,34.12-45,34.12-21.88,0-38.71-6.73-46.66-26.32l16.83-8.72c4.74,11.78,17.14,17,30.14,17,12.7,0,24.63-4.44,24.63-16.07,0-10.1-10.56-14.23-24.79-15.76-21.88-2.6-42.07-8.42-42.07-32.44,0-22,21.73-31.06,41.46-31.21,16.68,0,34,4.74,42.07,21.27Z"/><path class="cls-2" d="M521.89,589.93V482.83h20v107.1Z"/><path class="cls-2" d="M655.92,589.93h-24l-31.21-35.8H581.26v35.8h-20.2V482.68c17,0,34,.15,50.95.15,25.25.15,38.56,17,38.56,35.5,0,14.69-6.73,29.53-27.08,33.66l32.44,36.57Zm-74.66-88.28v34.27H612c12.85,0,18.36-8.57,18.36-17.14s-5.66-17.14-18.36-17.14Z"/></g><g id="Logo_Symbol" data-name="Logo Symbol"><path class="cls-2" d="M395.13,372.57a44.07,44.07,0,0,1-30.14,0L239.62,326.94v53.6L365,426.17a44.07,44.07,0,0,0,30.14,0L520.5,380.54v-53.6Z"/><path class="cls-3" d="M398.39,117a22,22,0,0,0-36.66,0L239.62,300.14,365,345.77a44.07,44.07,0,0,0,30.14,0L520.5,300.14Z"/></g></svg>